<svg xmlns="http://www.w3.org/2000/svg" width="90" height="90" viewBox="0 0 90 90" fill="none">
  <path d="M18.8194 30.1243C25.2069 30.4324 30.7729 31.8085 36.2362 33.7186C38.1668 34.3964 40.0564 35.1563 41.9664 35.8752C42.254 35.9778 42.5621 36.0395 42.8496 36.1011C43.9382 36.3065 43.9176 36.3065 44.0614 35.259C44.123 34.725 44.4105 34.4169 44.9651 34.3964C45.5196 34.3964 45.8072 34.7045 45.8893 35.2179C45.9099 35.4028 45.9099 35.5876 45.8893 35.7519C45.8277 36.2448 46.0742 36.2654 46.4644 36.2243C47.9843 36.0189 49.3604 35.4028 50.757 34.8277C56.364 32.589 62.1354 30.9664 68.1532 30.3092C70.9875 30.0011 73.8218 30.0011 76.6151 30.761C80.2915 31.7674 82.1605 34.4374 83.0642 37.9085C84.1733 42.16 83.3928 46.2266 81.4827 50.1084C81.1952 50.6835 81.072 51.238 81.072 51.8542C81.0925 53.6 80.9077 55.3252 80.6612 57.0505C80.4969 58.1596 79.9424 58.9606 78.936 59.4329C76.3686 60.6242 73.6986 61.1171 70.8848 60.6036C70.6794 60.5626 70.5151 60.501 70.3097 60.6447C68.297 62.1646 65.9145 62.4727 63.5115 62.678C62.0327 62.8013 60.5334 62.8424 59.0957 62.37C58.9519 62.3289 58.7876 62.2673 58.6643 62.411C57.658 63.6228 56.1997 63.6844 54.8236 63.8693C52.359 64.1774 49.8738 64.2801 47.3886 64.0541C46.6903 63.9925 46.0331 63.8282 45.4375 63.438C45.2115 63.2942 44.9856 63.171 44.7392 63.3353C43.6712 64.0952 42.4183 64.0747 41.2065 64.1158C38.5981 64.239 35.9897 64.0336 33.4018 63.5612C32.7035 63.438 32.0668 63.1299 31.5944 62.6164C31.3069 62.2878 31.0399 62.3289 30.6497 62.3905C26.85 63.0067 23.1531 62.7602 19.7847 60.6653C19.5588 60.5215 19.3945 60.501 19.148 60.5626C16.4164 61.1171 13.808 60.6036 11.3023 59.5151C10.1727 59.0222 9.51544 58.1801 9.33059 56.8862C9.08412 55.1609 8.89928 53.4357 8.94035 51.6899C8.94035 51.1353 8.81712 50.6424 8.57066 50.1495C6.49626 46.0212 5.75687 41.7081 7.11242 37.2102C8.40635 32.9176 11.3228 30.6378 15.9235 30.227C17.0531 30.1654 18.2238 30.0833 18.8194 30.1243ZM70.6794 47.6849C71.6242 46.432 72.7333 45.5078 74.1094 44.9327C77.0259 43.7414 79.1619 44.5014 80.5996 47.2741C80.6612 47.2125 80.7228 47.1714 80.7434 47.1098C81.8114 43.9263 82.0784 40.7223 80.9898 37.4772C79.9629 34.4169 77.8885 32.6711 74.6434 32.2193C72.0761 31.8701 69.5293 31.9728 67.003 32.3014C62.1354 32.9587 57.432 34.2321 52.8519 35.9778C50.6337 36.8199 48.5183 37.9701 46.0742 38.1139C45.2732 38.9559 44.5132 38.3603 43.6712 38.1549C42.4183 37.8469 41.1244 37.6415 39.9126 37.128C37.5301 36.1216 35.1271 35.1974 32.6419 34.4785C27.3224 32.9176 21.9618 31.7264 16.3343 32.1166C12.4935 32.3836 10.1111 34.0472 8.94035 37.5182C8.20096 39.6953 8.07773 41.9135 8.46797 44.1728C8.65281 45.2408 8.8582 46.3088 9.33059 47.3768C10.7067 44.8711 12.2265 44.0701 14.5474 44.563C16.3137 44.9327 17.7514 45.8569 18.9221 47.233C19.0454 47.3768 19.0864 47.6232 19.3534 47.6027C20.3187 45.5078 21.0992 44.8095 22.9272 44.563C26.0285 44.1728 28.5137 45.3435 30.5881 47.6027C30.7318 47.767 30.814 48.0135 31.0604 48.0546C32.3338 45.8569 33.6483 44.7684 35.5173 44.563C39.2348 44.1522 42.0897 45.5899 44.123 48.7118C44.5543 49.3896 45.4169 49.3896 45.8482 48.7118C47.2243 46.5142 49.1755 45.1175 51.7223 44.6246C55.0085 43.9879 57.5963 45.2613 58.8287 47.9519C58.8492 48.0135 58.9313 48.034 58.993 48.0956C60.2253 46.4731 61.7862 45.3845 63.7168 44.8095C67.0441 43.8031 69.2623 44.7068 70.6794 47.6849ZM57.7196 56.1878C57.8017 53.8875 57.8017 51.5667 57.3088 49.3074C56.9596 47.6849 55.6862 46.5758 54.0637 46.3498C50.8597 45.9185 47.5324 48.1162 46.7314 51.3407C45.9509 54.4831 45.7045 57.7077 46.0536 60.9323C46.1563 61.8154 46.4849 62.1235 47.3886 62.2057C50.2024 62.4521 53.0162 62.3084 55.8095 61.877C57.1239 61.6717 57.658 61.1171 57.699 59.7821C57.7606 58.5909 57.7196 57.3996 57.7196 56.1878ZM32.3133 56.1057C32.3133 57.4202 32.2517 58.7141 32.3338 60.0286C32.3955 61.1171 32.8884 61.6511 33.9769 61.836C36.8729 62.3494 39.7688 62.4727 42.7058 62.2262C43.4452 62.1646 43.8971 61.7949 43.9792 60.9733C44.2873 57.8309 44.0819 54.7296 43.3631 51.6694C42.7058 48.8761 40.8779 47.1303 38.0847 46.4731C35.0449 45.7542 32.9911 47.1919 32.5392 50.2316C32.2311 52.1828 32.1695 54.134 32.3133 56.1057ZM59.5886 55.9208C59.5886 56.8451 59.6091 57.7693 59.5886 58.673C59.527 60.8296 59.527 60.8501 61.7041 60.8912C63.9428 60.9323 66.1404 60.6447 68.2353 59.7821C68.831 59.5356 69.3239 59.207 69.3855 58.4882C69.7552 55.0993 69.6936 51.7515 68.872 48.4242C68.4613 46.8017 67.496 46.1855 65.8118 46.2882C65.5037 46.3088 65.1956 46.3498 64.8875 46.3909C62.0121 46.9249 59.1983 49.369 59.5475 52.8195C59.6707 53.867 59.5886 54.8939 59.5886 55.9208ZM30.4237 55.9208C30.4032 55.9208 30.3827 55.9208 30.3416 55.9208C30.3416 55.2225 30.3416 54.5448 30.3416 53.8464C30.3416 52.9222 30.5059 51.998 30.28 51.0943C29.6844 48.6296 27.4456 46.699 24.8167 46.3704C22.311 46.0623 21.3868 46.6374 20.8938 49.0609C20.2571 52.1417 20.1955 55.2431 20.5447 58.3649C20.6063 58.94 20.8733 59.3508 21.4278 59.5973C24.0979 60.768 26.8706 61.0555 29.746 60.7269C30.28 60.6653 30.4443 60.4393 30.4237 59.8848C30.4032 58.5909 30.4237 57.2559 30.4237 55.9208ZM79.2235 52.8195C79.244 51.6077 79.2235 50.0673 78.936 48.5475C78.5868 46.6579 77.3956 45.9185 75.5471 46.3909C73.1235 47.0071 71.1107 49.4923 71.2956 51.6488C71.4804 53.8464 71.5421 56.0441 71.2751 58.2212C71.2134 58.673 71.3161 58.8784 71.7885 58.9195C74.0067 59.0838 76.1016 58.7552 78.1144 57.7899C78.5046 57.605 78.7306 57.2969 78.8127 56.8656C79.0797 55.6333 79.1208 54.3804 79.2235 52.8195ZM10.7683 53.1071C10.8504 54.3599 10.8915 55.6128 11.1585 56.8451C11.2407 57.2764 11.4461 57.5845 11.8568 57.7899C13.8491 58.7346 15.944 59.0838 18.1211 58.9195C18.5935 58.8784 18.7784 58.7141 18.6962 58.2006C18.4087 56.0235 18.4703 53.867 18.6757 51.6899C18.6962 51.3818 18.7373 51.0532 18.6551 50.7657C18.0595 48.5064 16.6629 46.9865 14.3831 46.3704C12.5757 45.8775 11.3639 46.6579 11.0353 48.5064C10.7683 50.0468 10.7272 51.5872 10.7683 53.1071Z" fill="#0A3D0A"/>
  <path d="M62.9363 22.2993C62.4228 22.2993 62.0531 22.0733 61.7861 21.6626C61.6013 21.3545 61.4164 21.0464 61.2726 20.7178C60.8413 19.7319 60.143 19.0336 59.1572 18.6023C58.8286 18.4585 58.5205 18.2737 58.2124 18.0888C57.3498 17.5138 57.3498 16.3636 58.2124 15.768C58.3356 15.6858 58.4794 15.6037 58.6026 15.5421C59.9993 14.9875 60.9851 14.0017 61.5602 12.605C61.8067 12.0094 62.2174 11.5576 62.9363 11.537C63.6757 11.5165 64.107 11.9889 64.374 12.6256C64.9285 14.0017 65.8938 14.9464 67.2699 15.5215C67.9066 15.7885 68.3585 16.2198 68.3379 16.9592C68.3174 17.6575 67.8655 18.0888 67.2699 18.3353C65.8733 18.9104 64.9285 19.9168 64.3329 21.2929C63.9632 22.0733 63.573 22.2993 62.9363 22.2993ZM59.8349 16.9181C61.3548 17.5548 62.2996 18.5202 62.9568 20.0195C63.5935 18.4996 64.5794 17.5548 66.0582 16.8976C64.5383 16.2609 63.5935 15.2751 62.9363 13.7757C62.2996 15.3367 61.3343 16.2404 59.8349 16.9181Z" fill="#0A3D0A"/>
  <path d="M77.8687 23.7984C77.8071 24.3119 77.5812 24.7432 77.1088 24.9486C75.897 25.462 75.096 26.3452 74.5209 27.5159C74.0074 28.5634 72.734 28.5839 72.2206 27.5364C71.625 26.3246 70.7829 25.5031 69.5711 24.9075C68.5647 24.394 68.5647 23.1412 69.5916 22.6482C70.8034 22.0526 71.6455 21.2311 72.2206 20.0193C72.7135 19.0129 73.9869 18.9924 74.4798 19.9988C75.0754 21.2311 75.9381 22.1142 77.1909 22.6688C77.6428 22.8742 77.8276 23.3055 77.8687 23.7984ZM73.3502 21.7445C72.8984 22.6893 72.2206 23.2849 71.358 23.8189C72.2617 24.2913 72.8983 24.9486 73.3707 25.8317C73.8226 24.8869 74.4798 24.2913 75.4041 23.7779C74.4388 23.3055 73.8431 22.6482 73.3502 21.7445Z" fill="#0A3D0A"/>
  <path d="M45.9105 21.7448C45.9105 22.1762 45.931 22.6075 45.9105 23.0593C45.8694 23.5933 45.5408 23.9219 45.0068 23.9219C44.4933 23.9219 44.1236 23.6139 44.0826 23.0799C44.0415 22.2172 44.0415 21.3341 44.0826 20.4714C44.1031 19.9374 44.4728 19.6499 45.0068 19.6499C45.5613 19.6704 45.8489 19.9991 45.89 20.5125C45.931 20.9233 45.9105 21.3341 45.9105 21.7448Z" fill="#0A3D0A"/>
  <path d="M44.0811 26.6329C44.0811 26.2426 44.0605 25.8729 44.0811 25.4827C44.1016 24.9076 44.3892 24.5585 44.9848 24.5585C45.5599 24.5379 45.8885 24.8871 45.909 25.4622C45.9296 26.2837 45.9296 27.1053 45.909 27.9268C45.8885 28.5019 45.5393 28.851 44.9642 28.8305C44.4097 28.81 44.0811 28.4608 44.0605 27.8857C44.0605 27.4544 44.0811 27.0436 44.0811 26.6329Z" fill="#0A3D0A"/>
  <path d="M45.9098 31.6033C45.9098 31.9935 45.9098 32.3632 45.9098 32.7534C45.8892 33.3696 45.5606 33.7393 44.965 33.7393C44.4105 33.7393 44.0818 33.3696 44.0613 32.7945C44.0408 31.9935 44.0408 31.213 44.0613 30.412C44.0818 29.8369 44.3694 29.4878 44.965 29.4878C45.6017 29.4878 45.8892 29.8575 45.9098 30.4531C45.9303 30.8228 45.9098 31.213 45.9098 31.6033Z" fill="#0A3D0A"/>
  <path d="M45.9097 66.0671C45.9097 66.4574 45.9303 66.8271 45.9097 67.2173C45.8892 67.7924 45.5606 68.1415 45.006 68.1621C44.4515 68.1621 44.1023 67.8129 44.0818 67.2584C44.0613 66.4368 44.0613 65.6153 44.0818 64.7937C44.1023 64.2187 44.431 63.89 45.0266 63.9106C45.6222 63.9311 45.8892 64.2803 45.9303 64.8554C45.9303 65.2456 45.9097 65.6564 45.9097 66.0671Z" fill="#0A3D0A"/>
  <path d="M45.9105 70.9348C45.9105 71.3661 45.931 71.7974 45.9105 72.2493C45.8694 72.7833 45.5203 73.0914 44.9863 73.0914C44.4728 73.0914 44.1031 72.7627 44.0826 72.2287C44.0415 71.3661 44.0415 70.483 44.0826 69.6203C44.1031 69.1274 44.4317 68.8399 44.9452 68.8193C45.4997 68.7988 45.8283 69.1069 45.89 69.6203C45.9516 70.0516 45.9105 70.483 45.9105 70.9348Z" fill="#0A3D0A"/>
  <path d="M44.0829 75.7615C44.0829 75.3712 44.0623 75.0015 44.0829 74.6113C44.1239 74.0773 44.4115 73.7487 44.966 73.7282C45.5411 73.7076 45.8903 74.0568 45.9108 74.6113C45.9519 75.4329 45.9313 76.2544 45.9108 77.0759C45.8903 77.651 45.5411 78.0002 44.9866 78.0002C44.432 78.0002 44.1034 77.651 44.0829 77.0759C44.0623 76.6241 44.0829 76.1928 44.0829 75.7615Z" fill="#0A3D0A"/>
  <path d="M70.681 47.6849C69.2638 44.6862 67.0456 43.8031 63.7389 44.7889C61.8083 45.364 60.2474 46.4525 59.015 48.0751C58.9329 48.0135 58.8713 47.9929 58.8507 47.9313C57.6184 45.2408 55.0306 43.9674 51.7444 44.6041C49.1976 45.097 47.2464 46.4731 45.8703 48.6913C45.439 49.369 44.5764 49.369 44.1451 48.6913C42.1118 45.5694 39.2569 44.1317 35.5394 44.5425C33.6704 44.7478 32.3559 45.8364 31.0825 48.034C30.8155 47.9929 30.7539 47.7465 30.6101 47.5822C28.5563 45.3229 26.0506 44.1522 22.9492 44.5425C21.1213 44.7684 20.3408 45.4872 19.3755 47.5822C19.1085 47.5822 19.0674 47.3562 18.9442 47.2125C17.794 45.8364 16.3563 44.9122 14.5695 44.5425C12.2486 44.0495 10.7288 44.8505 9.35267 47.3562C8.88028 46.3088 8.67489 45.2408 8.49005 44.1522C8.09981 41.893 8.22304 39.6543 8.96243 37.4977C10.1331 34.0472 12.5156 32.3631 16.3563 32.0961C21.9634 31.7058 27.3445 32.9176 32.664 34.458C35.1492 35.1768 37.5522 36.1011 39.9347 37.1075C41.1464 37.6209 42.4404 37.8058 43.6932 38.1344C44.5559 38.3398 45.2952 38.9354 46.0963 38.0933C48.5403 37.9496 50.6558 36.7994 52.874 35.9573C57.4541 34.2115 62.1575 32.9381 67.0251 32.2809C69.5719 31.9317 72.1187 31.8496 74.6655 32.1987C77.9106 32.6506 79.985 34.3964 81.0119 37.4566C82.1005 40.7017 81.8129 43.9058 80.7654 47.0892C80.7449 47.1509 80.6627 47.1919 80.6217 47.2536C79.184 44.4808 77.048 43.7004 74.1315 44.9122C72.7348 45.5078 71.6258 46.432 70.681 47.6849ZM45.9114 41.4C45.9114 41.0098 45.9319 40.6401 45.9114 40.2499C45.8909 39.6748 45.6033 39.3256 45.0077 39.3051C44.4326 39.2846 44.0835 39.6337 44.0835 40.1883C44.0629 41.0098 44.0629 41.8314 44.0835 42.6529C44.104 43.228 44.4532 43.5771 45.0077 43.5771C45.5623 43.5566 45.8909 43.2074 45.9114 42.6324C45.9319 42.2216 45.9114 41.8108 45.9114 41.4ZM44.0835 46.3704C44.0835 46.7812 44.0629 47.1919 44.0835 47.6027C44.1245 48.1778 44.4737 48.5269 45.0282 48.5064C45.5417 48.4859 45.8909 48.1573 45.9114 47.6233C45.9319 46.7812 45.9525 45.9391 45.9114 45.097C45.8909 44.563 45.5623 44.2549 45.0077 44.2549C44.4532 44.2549 44.1451 44.563 44.0835 45.097C44.0424 45.4872 44.0835 45.9391 44.0835 46.3704Z" fill="#169BC5"/>
  <path d="M57.7197 56.1881C57.7197 57.3998 57.7608 58.5911 57.7197 59.8029C57.6581 61.1173 57.1241 61.6924 55.8301 61.8978C53.0369 62.3291 50.2231 62.4729 47.4093 62.2264C46.5056 62.1443 46.177 61.8362 46.0743 60.953C45.7046 57.7079 45.9716 54.5039 46.7521 51.3615C47.5531 48.1164 50.8803 45.9187 54.0844 46.3706C55.7069 46.5965 56.9803 47.7056 57.3295 49.3282C57.8019 51.5874 57.8019 53.8877 57.7197 56.1881Z" fill="#D3F2D3"/>
  <path d="M32.3126 56.1059C32.1893 54.1342 32.2304 52.1625 32.518 50.2113C32.9698 47.1716 35.0237 45.7544 38.0634 46.4528C40.8566 47.11 42.664 48.8352 43.3418 51.649C44.0607 54.7093 44.2661 57.8106 43.958 60.953C43.8758 61.7951 43.424 62.1443 42.6846 62.2059C39.7681 62.4523 36.8516 62.3291 33.9557 61.8156C32.8671 61.6308 32.3742 61.0968 32.3126 60.0082C32.251 58.7143 32.3126 57.4204 32.3126 56.1059Z" fill="#FDD9BC"/>
  <path d="M59.5874 55.921C59.5874 54.8941 59.6696 53.8672 59.5669 52.8608C59.2177 49.3898 62.052 46.9457 64.9069 46.4322C65.215 46.3706 65.5231 46.35 65.8311 46.3295C67.5153 46.2268 68.4806 46.843 68.8914 48.4655C69.7129 51.7722 69.7746 55.1406 69.4049 58.5294C69.3227 59.2483 68.8298 59.5769 68.2547 59.8234C66.1598 60.686 63.9621 60.9735 61.7234 60.9325C59.5258 60.8914 59.5463 60.8708 59.6079 58.7143C59.6285 57.749 59.6079 56.8453 59.5874 55.921Z" fill="#D3F2D3"/>
  <path d="M30.4235 55.9209C30.4235 57.2559 30.3825 58.5704 30.4441 59.9054C30.4646 60.4599 30.3003 60.6859 29.7663 60.7475C26.8909 61.0761 24.1182 60.7886 21.4482 59.6179C20.8936 59.3714 20.6266 58.9606 20.565 58.3855C20.2158 55.2637 20.298 52.1418 20.9142 49.0815C21.4071 46.658 22.3313 46.0624 24.837 46.391C27.466 46.7196 29.7047 48.6502 30.3003 51.1149C30.5262 52.0186 30.3619 52.9428 30.3619 53.867C30.3619 54.5654 30.3619 55.2431 30.3619 55.9414C30.3825 55.9209 30.403 55.9209 30.4235 55.9209Z" fill="#FDD9BC"/>
  <path d="M79.2239 52.8196C79.1212 54.3805 79.0801 55.6334 78.8131 56.8657C78.731 57.297 78.505 57.6051 78.1148 57.7899C76.102 58.7347 73.9865 59.0839 71.7889 58.9196C71.3165 58.8785 71.2138 58.6731 71.2754 58.2213C71.5424 56.0236 71.5014 53.8465 71.296 51.6489C71.1111 49.4923 73.1239 47.0277 75.5475 46.391C77.396 45.9186 78.6077 46.658 78.9363 48.5476C79.2239 50.0674 79.265 51.5873 79.2239 52.8196Z" fill="#F2F3FD"/>
  <path d="M10.7674 53.1071C10.7058 51.5667 10.7469 50.0468 11.0344 48.527C11.363 46.6785 12.5748 45.898 14.3822 46.391C16.662 47.0071 18.0586 48.527 18.6542 50.7862C18.7364 51.0738 18.6953 51.4024 18.6748 51.7105C18.4694 53.8876 18.4283 56.0647 18.6953 58.2212C18.7569 58.7347 18.5926 58.899 18.1202 58.9401C15.9431 59.1044 13.8482 58.7552 11.8559 57.8104C11.4452 57.6256 11.2603 57.3175 11.1576 56.8657C10.9112 55.6128 10.8495 54.36 10.7674 53.1071Z" fill="#FCD9BB"/>
  <path d="M59.8359 16.918C61.3353 16.2403 62.3006 15.3366 62.9373 13.7756C63.5945 15.275 64.5187 16.2608 66.0591 16.8975C64.5804 17.5547 63.5945 18.4995 62.9578 20.0194C62.3006 18.5406 61.3558 17.5753 59.8359 16.918Z" fill="#F9B05A"/>
  <path d="M73.3492 21.7446C73.8421 22.6483 74.4377 23.3056 75.403 23.778C74.4788 24.2914 73.8216 24.887 73.3697 25.8318C72.8973 24.9281 72.2606 24.2914 71.3569 23.819C72.2196 23.285 72.8973 22.6894 73.3492 21.7446Z" fill="#F8AF5A"/>
  <path d="M45.9097 41.4C45.9097 41.8108 45.9303 42.2216 45.9097 42.6324C45.8892 43.2074 45.5606 43.5771 45.006 43.5771C44.4515 43.5977 44.1023 43.228 44.0818 42.6529C44.0613 41.8314 44.0613 41.0098 44.0818 40.1883C44.1023 39.6132 44.431 39.2846 45.006 39.3051C45.6017 39.3256 45.8687 39.6748 45.9097 40.2499C45.9303 40.6401 45.9097 41.0304 45.9097 41.4Z" fill="#0A3D0A"/>
  <path d="M44.0817 46.3704C44.0817 45.9391 44.0407 45.5078 44.0817 45.0765C44.1228 44.5425 44.4514 44.2344 45.006 44.2344C45.5605 44.2344 45.8891 44.563 45.9097 45.0765C45.9507 45.9185 45.9507 46.7606 45.9097 47.6027C45.8891 48.1367 45.5605 48.4859 45.0265 48.4859C44.472 48.5064 44.1228 48.1572 44.0817 47.5822C44.0612 47.1919 44.0817 46.7812 44.0817 46.3704Z" fill="#0A3D0A"/>
<script xmlns=""/></svg>